<svg width="293" height="32" viewBox="0 0 293 32" fill="none" xmlns="http://www.w3.org/2000/svg">
<path fill-rule="evenodd" clip-rule="evenodd" d="M145.872 32C154.73 32 161.851 24.8371 161.851 15.9788C161.851 7.12053 154.73 0 145.872 0C137.014 0 129.851 7.12053 129.851 15.9788C129.851 24.8371 137.014 32 145.872 32ZM195.025 2.75497V29.245C195.025 30.3894 194.092 31.3219 192.948 31.3219H188.074C186.929 31.3219 185.997 30.3894 185.997 29.245V15.6397C185.997 14.8768 185.361 14.2411 184.598 14.2411H173.112C172.349 14.2411 171.713 14.8768 171.713 15.6397C171.713 15.894 171.798 16.1907 171.925 16.4026L178.749 28.1854C178.919 28.4821 179.046 28.8636 179.046 29.245C179.046 30.3894 178.071 31.3219 176.926 31.3219H168.577C167.432 31.3219 166.5 30.3894 166.5 29.245V2.07682C166.5 0.932451 167.432 0 168.577 0C168.958 0 169.297 0.0847672 169.594 0.254304L182.818 7.88344C184.132 8.64636 184.386 8.68874 184.598 8.68874C185.361 8.68874 185.997 8.05298 185.997 7.29007V2.75497C185.997 1.6106 186.929 0.678145 188.074 0.678145H192.948C194.092 0.678145 195.025 1.6106 195.025 2.75497ZM221.547 31.3219H230.957C232.101 31.3219 233.033 30.3894 233.033 29.245C233.033 28.8212 232.949 28.4397 232.779 28.143L217.097 1.01722C216.758 0.381457 216.037 0 215.274 0C214.512 0 213.833 0.381457 213.494 1.01722L197.812 28.1854C197.643 28.4821 197.558 28.8212 197.558 29.245C197.558 30.3894 198.49 31.3219 199.635 31.3219H210.443C211.587 31.3219 212.52 30.3894 212.52 29.245C212.52 28.8212 212.392 28.4821 212.223 28.1854L207.137 19.4543C207.01 19.2 206.967 18.9033 206.967 18.6066C206.967 18.2675 207.221 17.8013 207.645 17.547L217.436 11.9523C217.648 11.8252 217.86 11.7828 218.114 11.7828C218.877 11.7828 219.471 12.4185 219.471 13.1815V29.245C219.471 30.3894 220.403 31.3219 221.547 31.3219ZM247.745 32C240.455 32 234.521 26.0662 234.521 18.7762V2.75498C234.521 1.61061 235.454 0.678162 236.598 0.678162H242.151C243.295 0.678162 244.27 1.61061 244.27 2.75498V23.6503C244.27 24.4133 244.906 25.049 245.669 25.049C245.923 25.049 246.135 25.0066 246.347 24.8795L256.095 19.2848C256.773 18.9033 256.985 18.0556 256.604 17.3775L248.678 3.81459C248.508 3.5179 248.423 3.17882 248.423 2.75498C248.423 1.61061 249.356 0.678162 250.5 0.678162H258.85C259.994 0.678162 260.969 1.61061 260.969 2.75498V18.7762C260.969 26.0662 255.035 32 247.745 32ZM281.235 7.2477V29.245C281.235 30.3894 280.302 31.3219 279.158 31.3219H274.284C273.139 31.3219 272.207 30.3894 272.207 29.245V10.7656C272.207 9.96028 271.741 9.32452 271.105 8.94306L263.476 4.53512C262.84 4.19604 262.459 3.5179 262.459 2.75498C262.459 1.61061 263.391 0.678162 264.535 0.678162H290.305C291.449 0.678162 292.382 1.61061 292.382 2.75498V7.62916C292.382 8.77353 291.449 9.70598 290.305 9.70598C289.923 9.70598 289.542 9.57883 289.245 9.40929L283.269 6.06094C283.057 5.93379 282.845 5.84902 282.591 5.84902C281.828 5.84902 281.235 6.48479 281.235 7.2477ZM125.207 29.9232C125.207 31.0676 124.274 32 123.13 32C122.367 32 121.689 31.5762 121.308 30.9404L115.204 20.5563C114.823 19.9205 114.145 19.4967 113.382 19.4967H108.508C107.745 19.4967 107.109 20.0901 107.109 20.853V29.245C107.109 30.3894 106.176 31.3219 105.032 31.3219H100.158C99.0136 31.3219 98.0811 30.3894 98.0811 29.245V2.75498C98.0811 1.61061 99.0136 0.678162 100.158 0.678162H105.71C106.855 0.678162 107.787 1.61061 107.787 2.75498C107.787 3.17882 107.66 3.5179 107.49 3.85697L103.803 10.4265C103.676 10.6384 103.633 10.808 103.633 11.0623C103.633 11.8252 104.269 12.4609 105.032 12.4609H114.823C115.586 12.4609 116.179 11.8252 116.179 11.0623V2.75498C116.179 1.61061 117.112 0.678162 118.256 0.678162H123.13C124.274 0.678162 125.207 1.61061 125.207 2.75498V29.9232ZM78.2824 22.2517V5.55233C78.2824 4.78942 78.9182 4.15366 79.6811 4.15366C79.9354 4.15366 80.1473 4.19604 80.3593 4.3232L90.4891 10.1298C90.7858 10.2994 91.1248 10.4265 91.5063 10.4265C92.6507 10.4265 93.6255 9.49406 93.6255 8.34968V2.75498C93.6255 1.61061 92.6507 0.678162 91.5063 0.678162H81.0374C72.5606 0.678162 65.7368 7.502 65.7368 15.9788C65.7368 24.4556 72.5606 31.3219 81.0374 31.3219H91.5063C92.6507 31.3219 93.6255 30.3894 93.6255 29.245V25.7272C93.6255 24.5828 92.6507 23.6503 91.5063 23.6503H79.6811C78.9182 23.6503 78.2824 23.0146 78.2824 22.2517ZM52.4964 18.1404V2.75498C52.4964 1.61061 53.4288 0.678162 54.5732 0.678162H63.601C64.7454 0.678162 65.7202 1.61061 65.7202 2.75498C65.7202 3.17882 65.593 3.5179 65.4235 3.81459L50.1228 30.2623C49.7414 30.898 49.0632 31.3219 48.3003 31.3219H38.2129C37.0685 31.3219 36.1361 30.3894 36.1361 29.245C36.1361 28.8636 36.2632 28.4821 36.4328 28.1854L40.7136 20.8954C41.095 20.2172 41.095 19.4543 40.7136 18.8186L31.8977 3.85697C31.7281 3.56028 31.601 3.17882 31.601 2.75498C31.601 1.61061 32.5334 0.678162 33.6778 0.678162H46.1811C47.3255 0.678162 48.3003 1.61061 48.3003 2.75498C48.3003 3.17882 48.1732 3.5179 48.0036 3.81459L42.9176 13.2662C42.5361 13.9444 42.748 14.7497 43.4262 15.1311L50.0381 19.0729C50.4619 19.3272 50.8434 19.4967 51.0977 19.4967C51.8606 19.4967 52.4964 18.9033 52.4964 18.1404ZM18.7762 29.245V7.2477C18.7762 6.48479 19.3695 5.84902 20.1324 5.84902C20.3868 5.84902 20.5987 5.93379 20.8106 6.06094L26.7868 9.40929C27.0834 9.57883 27.4649 9.70598 27.8464 9.70598C28.9907 9.70598 29.9232 8.77353 29.9232 7.62916V2.75498C29.9232 1.61061 28.9907 0.678162 27.8464 0.678162H2.07682C0.93245 0.678162 0 1.61061 0 2.75498C0 3.5179 0.381457 4.19604 1.01722 4.53512L8.64636 8.94306C9.28212 9.32452 9.74834 9.96028 9.74834 10.7656V29.245C9.74834 30.3894 10.6808 31.3219 11.8252 31.3219H16.6993C17.8437 31.3219 18.7762 30.3894 18.7762 29.245Z" fill="#FFF1ED"/>
</svg>
